<svg width="751" height="490" viewBox="0 0 751 490" fill="none" xmlns="http://www.w3.org/2000/svg">
<g clip-path="url(#clip0_1403_9741)">
<path d="M174.754 428.002L152.694 420.295C150.266 408.266 150.81 395.826 154.281 384.055C162.649 404.202 188.75 409.835 203.242 426.141C207.723 431.262 210.994 437.325 212.813 443.882C214.633 450.439 214.953 457.321 213.751 464.018L217.975 480.044C207.062 478.792 196.55 475.19 187.163 469.484C177.777 463.779 169.739 456.107 163.603 446.996C160.211 441.85 157.481 436.298 155.477 430.471C164.999 429.795 174.754 428.002 174.754 428.002Z" fill="#F2F2F2"/>
<path d="M430.894 284.77H315.384C313.75 284.772 312.184 285.423 311.03 286.58C309.876 287.737 309.229 289.305 309.23 290.939V473.411H437.064V290.939C437.064 290.129 436.905 289.326 436.595 288.578C436.285 287.829 435.831 287.149 435.258 286.576C434.685 286.003 434.004 285.548 433.256 285.238C432.507 284.928 431.705 284.769 430.894 284.77V284.77ZM373.528 388.448C369.916 388.431 366.456 386.989 363.902 384.434C361.347 381.88 359.905 378.42 359.888 374.808V353.761C359.888 350.144 361.325 346.675 363.883 344.117C366.441 341.559 369.91 340.122 373.528 340.122C377.145 340.122 380.615 341.559 383.173 344.117C385.731 346.675 387.168 350.144 387.168 353.761V374.808C387.151 378.42 385.708 381.88 383.154 384.434C380.6 386.989 377.14 388.431 373.528 388.448V388.448Z" fill="#E6E6E6"/>
<path d="M308.836 467.574V485.179C308.838 486.091 309.201 486.966 309.846 487.611C310.491 488.256 311.365 488.619 312.278 488.621H434.021C434.932 488.616 435.805 488.252 436.449 487.608C437.094 486.963 437.458 486.09 437.462 485.179V467.574H308.836Z" fill="#CCCCCC"/>
<path d="M622.17 0H128.409C124.167 0.00674882 120.101 1.69493 117.101 4.6946C114.101 7.69426 112.413 11.7607 112.406 16.0029V349.194C112.41 353.437 114.098 357.505 117.098 360.506C120.098 363.506 124.166 365.193 128.409 365.197H622.17C626.413 365.193 630.481 363.506 633.481 360.506C636.481 357.505 638.168 353.437 638.172 349.194V16.0029C638.166 11.7607 636.477 7.69426 633.478 4.6946C630.478 1.69493 626.412 0.00674882 622.17 0V0Z" fill="#E6E6E6"/>
<path d="M618.047 11.5547H132.537C130.265 11.5601 128.087 12.4664 126.483 14.0749C124.878 15.6833 123.977 17.8626 123.977 20.1347V345.065C123.979 347.334 124.882 349.51 126.487 351.115C128.091 352.719 130.267 353.622 132.537 353.625H618.047C620.316 353.622 622.492 352.719 624.097 351.115C625.701 349.51 626.604 347.334 626.607 345.065V20.1347C626.606 17.8626 625.705 15.6833 624.1 14.0749C622.496 12.4664 620.319 11.5601 618.047 11.5547V11.5547Z" fill="white"/>
<path d="M629.526 18.9042V301.724C592.17 312.613 552.282 311.034 515.903 297.227C479.524 283.419 448.634 258.135 427.91 225.201C407.186 192.268 397.756 153.479 401.048 114.707C404.341 75.9351 420.176 39.2916 446.156 10.3242H620.966C623.238 10.3296 625.416 11.2359 627.02 12.8444C628.625 14.4529 629.526 16.6322 629.526 18.9042V18.9042Z" fill="#4DB5AC"/>
<path d="M593.644 56.328H139.351C138.878 56.3179 138.428 56.1232 138.098 55.7855C137.767 55.4478 137.582 54.994 137.582 54.5214C137.582 54.0488 137.767 53.5951 138.098 53.2574C138.428 52.9196 138.878 52.7249 139.351 52.7148H593.644C594.116 52.7249 594.566 52.9196 594.896 53.2574C595.227 53.5951 595.412 54.0488 595.412 54.5214C595.412 54.994 595.227 55.4478 594.896 55.7855C594.566 56.1232 594.116 56.3179 593.644 56.328V56.328Z" fill="#CACACA"/>
<path d="M170.275 43.4907C176.122 43.4907 180.863 38.6448 180.863 32.6672C180.863 26.6896 176.122 21.8438 170.275 21.8438C164.428 21.8438 159.688 26.6896 159.688 32.6672C159.688 38.6448 164.428 43.4907 170.275 43.4907Z" fill="#3F3D56"/>
<path d="M206.849 43.4907C212.697 43.4907 217.437 38.6448 217.437 32.6672C217.437 26.6896 212.697 21.8438 206.849 21.8438C201.002 21.8438 196.262 26.6896 196.262 32.6672C196.262 38.6448 201.002 43.4907 206.849 43.4907Z" fill="#3F3D56"/>
<path d="M243.423 43.4907C249.271 43.4907 254.011 38.6448 254.011 32.6672C254.011 26.6896 249.271 21.8438 243.423 21.8438C237.576 21.8438 232.836 26.6896 232.836 32.6672C232.836 38.6448 237.576 43.4907 243.423 43.4907Z" fill="#3F3D56"/>
<path d="M571.62 24.5273H545.639C545.124 24.5376 544.634 24.7494 544.273 25.1172C543.913 25.485 543.711 25.9795 543.711 26.4946C543.711 27.0096 543.913 27.5042 544.273 27.872C544.634 28.2398 545.124 28.4516 545.639 28.4618H571.62C572.135 28.4516 572.626 28.2398 572.986 27.872C573.347 27.5042 573.549 27.0096 573.549 26.4946C573.549 25.9795 573.347 25.485 572.986 25.1172C572.626 24.7494 572.135 24.5376 571.62 24.5273V24.5273Z" fill="#3F3D56"/>
<path d="M571.62 31.9102H545.639C545.124 31.9204 544.634 32.1322 544.273 32.5C543.913 32.8678 543.711 33.3623 543.711 33.8774C543.711 34.3924 543.913 34.887 544.273 35.2548C544.634 35.6226 545.124 35.8344 545.639 35.8446H571.62C572.135 35.8344 572.626 35.6226 572.986 35.2548C573.347 34.887 573.549 34.3924 573.549 33.8774C573.549 33.3623 573.347 32.8678 572.986 32.5C572.626 32.1322 572.135 31.9204 571.62 31.9102V31.9102Z" fill="#3F3D56"/>
<path d="M571.62 39.2852H545.639C545.124 39.2954 544.634 39.5072 544.273 39.875C543.913 40.2428 543.711 40.7373 543.711 41.2524C543.711 41.7674 543.913 42.262 544.273 42.6298C544.634 42.9976 545.124 43.2094 545.639 43.2196H571.62C572.135 43.2094 572.626 42.9976 572.986 42.6298C573.347 42.262 573.549 41.7674 573.549 41.2524C573.549 40.7373 573.347 40.2428 572.986 39.875C572.626 39.5072 572.135 39.2954 571.62 39.2852V39.2852Z" fill="#3F3D56"/>
<path d="M253.959 254.281C254.628 253.554 255.129 252.688 255.427 251.746C255.725 250.804 255.813 249.808 255.685 248.828C255.556 247.848 255.214 246.908 254.683 246.075C254.152 245.241 253.445 244.534 252.611 244.004L258.151 220.629L246.426 224.913L242.963 246.453C242.164 247.913 241.929 249.615 242.301 251.236C242.674 252.858 243.628 254.287 244.984 255.252C246.339 256.216 248.002 256.651 249.656 256.472C251.31 256.293 252.841 255.514 253.959 254.281H253.959Z" fill="#9E616A"/>
<path d="M282.155 156.329L277.449 168.429C277.449 168.429 279.466 180.53 276.105 183.219C272.743 185.907 274.088 185.908 274.088 187.924C273.972 189.371 273.553 190.777 272.858 192.051C272.163 193.325 271.208 194.438 270.054 195.319C267.365 197.336 255.265 238.342 255.265 238.342H243.165C243.556 235.217 243.556 232.056 243.165 228.931C242.492 224.225 245.181 212.125 246.526 210.108C247.87 208.091 246.526 205.402 246.526 201.369C246.526 197.336 249.215 195.319 249.215 188.596C249.215 181.874 257.282 129.439 256.61 123.389C255.937 117.339 263.332 111.961 263.332 111.961H270.054L282.155 156.329Z" fill="#E6E6E6"/>
<path d="M325.812 471.539H335.128L339.56 435.609H325.812V471.539Z" fill="#9E616A"/>
<path d="M322.771 465.162L337.653 464.273V470.65L351.802 480.421C352.5 480.904 353.027 481.597 353.304 482.4C353.581 483.203 353.594 484.073 353.341 484.884C353.088 485.695 352.583 486.403 351.899 486.907C351.215 487.41 350.388 487.681 349.538 487.681H331.821L328.767 481.374L327.575 487.681H320.895L322.771 465.162Z" fill="#2F2E41"/>
<path d="M209.062 463.628L217.717 467.073L235.124 435.331L222.352 430.246L209.062 463.628Z" fill="#9E616A"/>
<path d="M208.599 456.574L222.755 461.253L220.397 467.177L229.928 481.488C230.399 482.195 230.631 483.034 230.592 483.882C230.552 484.731 230.242 485.544 229.708 486.204C229.173 486.864 228.441 487.335 227.62 487.55C226.798 487.765 225.929 487.711 225.14 487.397L208.679 480.844L208.174 473.855L204.734 479.274L198.527 476.803L208.599 456.574Z" fill="#2F2E41"/>
<path d="M307.037 364.629L291.504 292.141L267.249 372.681L228.842 449.054L228.638 449.46L216.472 442.909C214.755 411.899 218.833 382.839 233.748 357.428L240.81 287.683C241.027 285.299 246.295 229.351 262.976 219.429L267.862 208.29L316.452 196.289L316.628 196.488C321.301 201.74 324.387 208.209 325.529 215.145L340.048 303.102L340.057 303.151L336.164 364.511L341.489 455.037H322.22C310.3 432.608 305.239 402.472 307.037 364.629Z" fill="#005751"/>
<path d="M352.981 123.221L382.437 112.916C383.35 112.6 384.352 112.659 385.221 113.079C386.091 113.5 386.759 114.249 387.078 115.161C387.397 116.073 387.342 117.074 386.924 117.946C386.506 118.817 385.76 119.487 384.849 119.809L355.393 130.115C354.479 130.431 353.478 130.372 352.608 129.951C351.738 129.53 351.071 128.782 350.752 127.869C350.433 126.957 350.488 125.956 350.906 125.085C351.324 124.213 352.07 123.543 352.981 123.221V123.221Z" fill="#2F2E41"/>
<path d="M384.632 118.871C385.208 120.866 387.694 121.835 389.702 121.303C391.687 120.623 393.339 119.21 394.318 117.354C395.397 115.579 396.138 113.614 397.247 111.859C399.377 108.524 402.708 106.136 406.55 105.189C403.126 104.738 399.648 105.397 396.627 107.069C395.563 107.798 394.389 108.352 393.15 108.707C391.828 108.777 390.502 108.76 389.183 108.655C388.017 108.715 386.892 109.106 385.941 109.784C384.991 110.461 384.253 111.396 383.816 112.478C383.379 113.561 383.261 114.746 383.475 115.893C383.689 117.041 384.227 118.103 385.024 118.955" fill="#4DB5AC"/>
<path d="M380.779 122.044C380.656 123.024 380.318 123.966 379.791 124.802C379.264 125.638 378.56 126.348 377.729 126.882C376.898 127.417 375.959 127.763 374.98 127.895C374.001 128.028 373.004 127.944 372.061 127.65L357.787 146.972L353.488 135.252L367.702 118.7C368.301 117.148 369.449 115.87 370.928 115.107C372.407 114.345 374.114 114.151 375.726 114.563C377.338 114.976 378.743 115.965 379.674 117.343C380.605 118.722 380.999 120.395 380.779 122.044V122.044Z" fill="#9E616A"/>
<path d="M253.536 231.889C252.228 231.889 251.485 231.632 251.197 231.082C250.774 230.275 251.507 229.22 252.356 227.997C252.948 227.146 254.676 225.452 253.826 225.349C240.936 223.775 247.124 144.305 252.71 133.8C253.845 131.666 252.644 128.391 253.922 124.769C257.413 114.877 262.179 111.837 271.673 105.782C272.444 105.29 273.246 104.776 274.08 104.241C275.16 103.547 275.1 101.248 275.036 98.8126C274.966 96.1062 274.892 93.3072 276.218 91.5579L276.304 91.4438L276.444 91.4114C279.651 90.6701 290.437 89.2937 296.825 91.4214L296.913 91.4515L296.979 91.517C298.496 93.0344 298.634 95.9736 298.768 98.8157C298.878 101.149 298.981 103.352 299.84 104.31C306.403 111.625 313.846 111.483 313.922 111.481L314.291 111.47L314.327 111.837C318.929 120.595 315.326 153.122 318.524 173.326C321.774 193.853 349.524 211.326 325.762 214.429C325.813 214.508 325.842 214.599 325.845 214.693C325.848 214.787 325.825 214.88 325.779 214.962C324.343 217.645 258.468 231.889 253.536 231.889Z" fill="#E6E6E6"/>
<path d="M328.757 172.107L315.926 164.889C293.55 149.38 288.039 137.064 287.35 129.459C286.615 121.345 290.937 116.907 291.122 116.723L291.222 116.649L302.789 110.739C304.258 109.989 305.87 109.559 307.518 109.479C309.166 109.398 310.812 109.669 312.347 110.273C313.883 110.877 315.272 111.801 316.423 112.983C317.575 114.164 318.462 115.577 319.026 117.128L329.725 146.553L341.587 137.804L346.646 135.81L350.728 130.352L361.939 123.813L370.268 131.309L359.793 152.257L353.974 153.739L352.74 156.917L352.63 156.988L328.757 172.107Z" fill="#E6E6E6"/>
<path d="M305.792 77.9626C303.41 82.3175 299.616 85.7315 295.035 87.6423C290.454 89.5531 285.359 89.8468 280.589 88.4751C275.819 87.1034 271.658 84.1479 268.791 80.0956C265.925 76.0432 264.524 71.1355 264.82 66.1807C265.116 61.2259 267.09 56.5195 270.417 52.8366C273.745 49.1536 278.228 46.7138 283.127 45.9188C288.027 45.1238 293.051 46.0211 297.372 48.4629C301.694 50.9047 305.055 54.7454 306.902 59.3526C307.002 59.6026 307.092 59.8526 307.182 60.1126C308.226 63.0169 308.642 66.1097 308.402 69.1867C308.163 72.2638 307.273 75.2549 305.792 77.9626Z" fill="#9E616A"/>
<path d="M308.932 60.113C307.992 57.483 308.402 58.8531 307.452 56.2331C307.758 57.5238 307.663 58.877 307.182 60.113H281.172V44.9931C288.792 41.9731 296.242 39.4031 300.742 44.9931C304.752 44.9932 308.598 46.5863 311.433 49.4218C314.269 52.2573 315.862 56.103 315.862 60.113H308.932Z" fill="#2F2E41"/>
<path d="M299.713 102.143C299.693 101.863 299.663 101.573 299.623 101.293C299.274 99.2391 298.707 97.2279 297.933 95.2933C297.183 93.1833 296.423 91.0633 295.663 88.9533C296.642 92.7834 296.343 96.8283 294.813 100.473C290.423 97.0533 293.193 89.2333 287.453 89.2333C273.653 89.2333 259.453 78.0433 259.453 64.2333C259.453 50.4332 265.373 40.1133 279.173 40.1133C292.983 40.1133 304.183 46.4332 304.453 60.2333C287.453 64.2333 302.923 100.743 299.713 102.143Z" fill="#2F2E41"/>
<path d="M261.176 62.1172C270.012 62.1172 277.176 54.9537 277.176 46.1172C277.176 37.2806 270.012 30.1172 261.176 30.1172C252.339 30.1172 245.176 37.2806 245.176 46.1172C245.176 54.9537 252.339 62.1172 261.176 62.1172Z" fill="#005751"/>
<path d="M266.54 46.7398C263.8 49.9298 259.51 51.1698 255.64 52.8298C248.81 55.8261 242.814 60.4433 238.171 66.2809C233.529 72.1185 230.381 79.0004 229 86.3298C227.93 92.2998 228.07 98.4798 226.38 104.3C224.7 110.12 220.54 115.83 214.57 116.84C210.53 117.53 206.48 115.97 202.68 114.43C200.59 113.59 198.5 112.746 196.41 111.9C198.59 106.43 200.767 100.96 202.94 95.4898C199.447 100.652 195.385 105.405 190.83 109.66C183.34 106.64 175.843 103.62 168.34 100.6C186.8 100.67 183.65 82.7497 187.78 64.7698C190.05 54.8898 209.38 48.1998 213.17 38.7998C215.218 33.7013 218.684 29.2962 223.157 26.1059C227.63 22.9156 232.924 21.0736 238.411 20.7979C243.899 20.5223 249.351 21.8245 254.121 24.5505C258.892 27.2765 262.781 31.3121 265.33 36.1798C269.12 37.6898 269.23 43.5898 266.54 46.7398Z" fill="#2F2E41"/>
<path d="M749.941 489.213L1.19067 489.521C0.874886 489.521 0.572035 489.395 0.34874 489.172C0.125444 488.949 0 488.646 0 488.33C0 488.014 0.125444 487.711 0.34874 487.488C0.572035 487.265 0.874886 487.139 1.19067 487.139L749.941 486.832C750.256 486.832 750.559 486.957 750.783 487.181C751.006 487.404 751.131 487.707 751.131 488.023C751.131 488.339 751.006 488.641 750.783 488.865C750.559 489.088 750.256 489.213 749.941 489.213V489.213Z" fill="#CACACA"/>
</g>
<defs>
<clipPath id="clip0_1403_9741">
<rect width="751.131" height="489.52" fill="white"/>
</clipPath>
</defs>
</svg>
